<?xml version="1.0" encoding="utf-8"?>
<!-- Generator: Adobe Illustrator 27.2.0, SVG Export Plug-In . SVG Version: 6.00 Build 0)  -->
<svg version="1.1" id="Layer_1" xmlns="http://www.w3.org/2000/svg" xmlns:xlink="http://www.w3.org/1999/xlink" x="0px" y="0px"
	 viewBox="0 0 203 242.7" style="enable-background:new 0 0 203 242.7;" xml:space="preserve">
<style type="text/css">
	.st0{fill:#FED106;}
</style>
<g>
	<g>
		<g>
			<g>
				<path class="st0" d="M103.6,242.1c-1.3,0.8-2.9,0.8-4.1,0L1.9,183.5c-1.2-0.7-1.9-2-1.9-3.4V62.6c0-1.4,0.7-2.7,1.9-3.4
					L99.4,0.6c1.3-0.8,2.9-0.8,4.1,0l97.5,58.6c1.2,0.7,1.9,2,1.9,3.4v117.5c0,1.4-0.7,2.7-1.9,3.4L103.6,242.1z"/>
				<path d="M133.4,139l7.7,8.2L88.7,189l-10.3-7l14.4-10.9l-13-10.7l-24.3,5.4L45,158.1L133.4,139z M93.1,157.3l8.5,7.1l17.1-12.9
					L93.1,157.3z"/>
				<path d="M42.1,120.3l39.3-68.8c11.2,32.2,4.4,53.5,4.4,53.5c-8.7,29.9-25.6,43.9-25.6,43.9c-4.9,4.3-10,2.5-11.8-0.5
					c-2-3.5-2.9-8.7-2.9-8.7C45.1,137.6,42.1,120.3,42.1,120.3z M50.8,121.8c0,0,1.2,8.3,1.4,9.4c0,0,2,12.2,11.5-1.2
					c0,0,20.6-26.8,13.3-52.8L50.8,121.8z"/>
				<path d="M126.6,72.4l5.5-7.8l31.9,61.3l-4.4,8.8l-1.9-2.2c0,3.6-0.6,5.3-0.6,5.3c-2.5,9.2-8.7,8.7-8.7,8.7
					c-11.7-0.2-19.9-20.2-19.9-20.2c-10-21.6-1.6-32.8-1.6-32.8c3.8-4.8,8.4-4.2,8.4-4.2L126.6,72.4z M148.3,133.8
					c3.4-1.9,3.7-10.9,0.2-20.1c-3.8-9.8-8.5-15.7-13-13.5c-3.9,1.9-4.3,10.5-0.2,19.5C140.5,130.9,144.9,135.7,148.3,133.8z"/>
				<path d="M115.9,90l11.7-6.3c-1.5,10.9-12.2,32.6-12.2,32.6c0.8,0.9,7.2,13.4,7.2,13.4l-12.2,6l-3-5.4c-14,21-22.1,16-22.1,16
					c-5.9-2-4.7-16.7-4.7-16.7c1.3-13.3,11.8-29.4,11.8-29.4c-6.5-12.4,2.4-25.5,2.4-25.5c7.9-12.8,15.3-13.9,15.3-13.9
					c7.6-1.8,7.3,6.4,7.3,6.4c1.3,12-12.1,29.6-12.1,29.6c0.7,3,5,9.9,5,9.9C112.6,102.9,115.9,90,115.9,90z M96.3,108.8
					c0,0-9.6,14.3-5.8,20.8c0,0,5.1,5.8,12-8.4L96.3,108.8z M107.5,71.6c0,0-3-0.9-6.4,5.3c0,0-3.3,6.4,0.1,12.4c0,0,6-8.7,6.8-12.6
					C108,76.7,109.6,72.5,107.5,71.6z"/>
			</g>
		</g>
	</g>
</g>
</svg>
